<svg width="44" height="44" viewBox="0 0 44 44" fill="none" xmlns="http://www.w3.org/2000/svg">
<path d="M43.6885 26.103C43.9221 24.7744 44 23.4458 44 21.9609C44 9.84725 34.1876 0 21.9611 0C20.5593 0 19.1575 0.0781527 17.8336 0.468916C17.7558 10.0036 9.96814 17.6625 0.467257 17.8188C0.155752 19.1474 0 20.6323 0 22.0391C0 34.2309 9.81239 44 22.0389 44C23.3628 44 24.6867 43.9218 26.0106 43.6874C26.1664 33.9183 34.0319 26.103 43.6885 26.103Z" fill="#EAF0F7"/>
<path d="M44 28.1204C35.3704 28.1981 28.5289 35.1174 28.4512 43.6692C36.3811 42.2698 42.5229 36.0503 44 28.1204Z" fill="#A0DB9C"/>
<path d="M44 28.1204C35.3704 28.1981 28.5289 35.1174 28.4512 43.6692C36.3811 42.2698 42.5229 36.0503 44 28.1204Z" fill="url(#paint0_linear_8324_33605)"/>
<path d="M16.2105 0.330811C8.35831 1.8857 2.21651 7.94976 0.661621 15.8797C9.13576 15.6465 16.1327 8.80495 16.2105 0.330811Z" fill="#A0DB9C"/>
<path d="M16.2105 0.330811C8.35831 1.8857 2.21651 7.94976 0.661621 15.8797C9.13576 15.6465 16.1327 8.80495 16.2105 0.330811Z" fill="url(#paint1_linear_8324_33605)"/>
<defs>
<linearGradient id="paint0_linear_8324_33605" x1="44" y1="43.6692" x2="44" y2="28.1204" gradientUnits="userSpaceOnUse">
<stop stop-color="#3E9679"/>
<stop offset="0.52267" stop-color="#4DA567"/>
<stop offset="1" stop-color="#58B25B"/>
</linearGradient>
<linearGradient id="paint1_linear_8324_33605" x1="16.2105" y1="15.8797" x2="16.2105" y2="0.330811" gradientUnits="userSpaceOnUse">
<stop stop-color="#3E9679"/>
<stop offset="0.52267" stop-color="#4DA567"/>
<stop offset="1" stop-color="#58B25B"/>
</linearGradient>
</defs>
</svg>
