<svg width="255" height="50" viewBox="33 0 255 50" fill="none" xmlns="http://www.w3.org/2000/svg">
<path fill-rule="evenodd" clip-rule="evenodd" d="M130.228 3.91306H126.591V26.6734H130.228V3.91306ZM145.732 6.7036H152.747L152.921 3.91306H134.992V6.7036H142.094V26.6734H145.732V6.7036Z" fill="#BE3B26"/>
<path d="M126.591 3.91306V3.41306H126.091V3.91306H126.591ZM130.228 3.91306H130.728V3.41306H130.228V3.91306ZM126.591 26.6734H126.091V27.1734H126.591V26.6734ZM130.228 26.6734V27.1734H130.728V26.6734H130.228ZM152.747 6.7036V7.2036H153.217L153.246 6.73458L152.747 6.7036ZM145.732 6.7036V6.2036H145.232V6.7036H145.732ZM152.921 3.91306L153.42 3.94403L153.453 3.41306H152.921V3.91306ZM134.992 3.91306V3.41306H134.492V3.91306H134.992ZM134.992 6.7036H134.492V7.2036H134.992V6.7036ZM142.094 6.7036H142.594V6.2036H142.094V6.7036ZM142.094 26.6734H141.594V27.1734H142.094V26.6734ZM145.732 26.6734V27.1734H146.232V26.6734H145.732ZM126.591 4.41306H130.228V3.41306H126.591V4.41306ZM127.091 26.6734V3.91306H126.091V26.6734H127.091ZM130.228 26.1734H126.591V27.1734H130.228V26.1734ZM129.728 3.91306V26.6734H130.728V3.91306H129.728ZM152.747 6.2036H145.732V7.2036H152.747V6.2036ZM152.422 3.88208L152.248 6.67262L153.246 6.73458L153.42 3.94403L152.422 3.88208ZM134.992 4.41306H152.921V3.41306H134.992V4.41306ZM135.492 6.7036V3.91306H134.492V6.7036H135.492ZM142.094 6.2036H134.992V7.2036H142.094V6.2036ZM142.594 26.6734V6.7036H141.594V26.6734H142.594ZM145.732 26.1734H142.094V27.1734H145.732V26.1734ZM145.232 6.7036V26.6734H146.232V6.7036H145.232Z" fill="#BE3B26"/>
<path fill-rule="evenodd" clip-rule="evenodd" d="M58.126 26.4415V3.5639H68.6063C70.3677 3.47522 72.1291 3.74124 73.8024 4.18461C75.0354 4.62797 76.0922 5.33736 76.7968 6.31276C77.5013 7.19949 77.8536 8.26356 77.9417 9.32764C77.9417 10.3917 77.5013 11.3671 76.9729 12.0765C76.1803 13.0519 75.2115 13.7613 74.0666 14.2047C75.5638 14.5593 76.9729 15.2687 77.9417 16.3328C78.8224 17.3082 79.2627 18.461 79.1747 19.7911C79.1747 20.8551 78.9105 21.9192 78.382 22.7173C77.9417 23.604 77.1491 24.3134 76.2684 24.8454C75.2996 25.3775 74.2428 25.8208 73.274 25.9982C71.7768 26.2642 70.2796 26.4415 68.6944 26.4415H58.126ZM61.8249 13.1406H67.9017C69.1347 13.2293 70.2796 13.0519 71.4245 12.8746L71.4245 12.8746C72.2171 12.6972 72.9217 12.3425 73.5382 11.7218C73.9785 11.1898 74.2428 10.4804 74.2428 9.68233C74.2428 8.88427 73.9785 8.26356 73.6263 7.64285C73.1859 7.11082 72.4814 6.57878 71.6887 6.40143C70.2796 6.13541 68.7824 5.95807 67.3733 6.04674H61.8249V13.1406ZM68.8705 23.7813H61.8249L61.913 15.9781H68.3421C69.7512 15.9781 71.1603 16.0668 72.4814 16.4215C73.3621 16.5102 74.1547 17.0422 74.6831 17.6629C75.2115 18.2836 75.4757 19.0817 75.4757 19.8797C75.4757 20.5891 75.3877 21.2985 74.9473 21.8305C74.595 22.3626 74.0666 22.7173 73.5382 23.072C72.8336 23.338 72.1291 23.604 71.4245 23.6927C70.5438 23.7813 69.7512 23.7813 68.8706 23.7813H68.8705ZM84.8992 18.6383V3.91859H98.55V6.75612H88.5101V13.4066H97.8455V16.2441H88.5101V19.1703C88.422 20.4118 88.9504 21.7419 89.9192 22.6286C91.1522 23.5153 92.5613 23.87 93.9704 23.87H98.55V26.7075H94.5869C91.3283 26.7075 88.8623 26.0868 87.2771 24.7567C85.6918 23.2493 84.8992 21.2985 84.8992 18.6383ZM121.096 26.6189V23.7813H110.616V3.91859H106.917V26.6189H121.096Z" fill="#323F56"/>
<path d="M58.126 3.5639V3.0639H57.626V3.5639H58.126ZM58.126 26.4415H57.626V26.9415H58.126V26.4415ZM68.6063 3.5639V4.0639H68.6189L68.6314 4.06326L68.6063 3.5639ZM73.8024 4.18461L73.9716 3.7141L73.9513 3.70681L73.9305 3.70128L73.8024 4.18461ZM76.7968 6.31276L76.3915 6.60553L76.3982 6.61483L76.4053 6.62381L76.7968 6.31276ZM77.9417 9.32764H78.4417V9.30698L78.44 9.2864L77.9417 9.32764ZM76.9729 12.0765L77.361 12.3918L77.3676 12.3836L77.3739 12.3752L76.9729 12.0765ZM74.0666 14.2047L73.8861 13.7384L72.3843 14.3199L73.9513 14.6912L74.0666 14.2047ZM77.9417 16.3328L78.3128 15.9977L78.3114 15.9962L77.9417 16.3328ZM79.1747 19.7911L78.6758 19.758L78.6747 19.7745V19.7911H79.1747ZM78.382 22.7173L77.9651 22.4412L77.948 22.4671L77.9342 22.4949L78.382 22.7173ZM76.2684 24.8454L76.509 25.2837L76.5181 25.2787L76.5269 25.2734L76.2684 24.8454ZM73.274 25.9982L73.3615 26.4905L73.364 26.49L73.274 25.9982ZM67.9017 13.1406L67.9376 12.6419L67.9197 12.6406H67.9017V13.1406ZM61.8249 13.1406H61.3249V13.6406H61.8249V13.1406ZM71.4245 12.8746L71.501 13.3687L71.5118 13.367L71.5226 13.3649L71.4245 12.8746ZM71.4245 12.8746L71.5226 13.365L71.5337 13.3625L71.4245 12.8746ZM73.5382 11.7218L73.893 12.0742L73.9089 12.0581L73.9234 12.0406L73.5382 11.7218ZM73.6263 7.64285L74.0611 7.39606L74.0394 7.35787L74.0114 7.32405L73.6263 7.64285ZM71.6887 6.40143L71.7979 5.9135L71.7897 5.91167L71.7815 5.91011L71.6887 6.40143ZM67.3733 6.04674V6.54674H67.389L67.4047 6.54575L67.3733 6.04674ZM61.8249 6.04674V5.54674H61.3249V6.04674H61.8249ZM61.8249 23.7813L61.3249 23.7757L61.3192 24.2813H61.8249V23.7813ZM61.913 15.9781V15.4781H61.4186L61.413 15.9725L61.913 15.9781ZM72.4814 16.4215L72.3517 16.9044L72.3909 16.9149L72.4313 16.919L72.4814 16.4215ZM74.6831 17.6629L75.0638 17.3388L75.0638 17.3388L74.6831 17.6629ZM74.9473 21.8305L74.5621 21.5117L74.5451 21.5323L74.5304 21.5545L74.9473 21.8305ZM73.5382 23.072L73.7148 23.5397L73.7689 23.5193L73.8169 23.4871L73.5382 23.072ZM71.4245 23.6927L71.4746 24.1903L71.487 24.1887L71.4245 23.6927ZM84.8992 3.91859V3.41859H84.3992V3.91859H84.8992ZM98.55 3.91859H99.05V3.41859H98.55V3.91859ZM98.55 6.75612V7.25612H99.05V6.75612H98.55ZM88.5101 6.75612V6.25612H88.0101V6.75612H88.5101ZM88.5101 13.4066H88.0101V13.9066H88.5101V13.4066ZM97.8455 13.4066H98.3455V12.9066H97.8455V13.4066ZM97.8455 16.2441V16.7441H98.3455V16.2441H97.8455ZM88.5101 16.2441V15.7441H88.0101V16.2441H88.5101ZM88.5101 19.1703L89.0088 19.2057L89.0101 19.1881V19.1703H88.5101ZM89.9192 22.6286L89.5816 22.9974L89.6033 23.0173L89.6272 23.0345L89.9192 22.6286ZM98.55 23.87H99.05V23.37H98.55V23.87ZM98.55 26.7075V27.2075H99.05V26.7075H98.55ZM87.2771 24.7567L86.9325 25.1191L86.9438 25.1298L86.9557 25.1398L87.2771 24.7567ZM121.096 23.7813H121.596V23.2813H121.096V23.7813ZM121.096 26.6189V27.1189H121.596V26.6189H121.096ZM110.616 23.7813H110.116V24.2813H110.616V23.7813ZM110.616 3.91859H111.116V3.41859H110.616V3.91859ZM106.917 3.91859V3.41859H106.417V3.91859H106.917ZM106.917 26.6189H106.417V27.1189H106.917V26.6189ZM57.626 3.5639V26.4415H58.626V3.5639H57.626ZM68.6063 3.0639H58.126V4.0639H68.6063V3.0639ZM73.9305 3.70128C72.2229 3.24884 70.4081 2.97255 68.5811 3.06453L68.6314 4.06326C70.3272 3.97789 72.0353 4.23364 73.6743 4.66793L73.9305 3.70128ZM77.2021 6.01999C76.4253 4.94462 75.2757 4.18304 73.9716 3.7141L73.6332 4.65511C74.7951 5.0729 75.7591 5.73009 76.3915 6.60553L77.2021 6.01999ZM78.44 9.2864C78.3453 8.14203 77.9648 6.97902 77.1882 6.00171L76.4053 6.62381C77.0379 7.41996 77.362 8.38509 77.4434 9.36888L78.44 9.2864ZM77.3739 12.3752C77.9481 11.6044 78.4417 10.5267 78.4417 9.32764H77.4417C77.4417 10.2567 77.0546 11.1298 76.5719 11.7778L77.3739 12.3752ZM74.2472 14.6709C75.4752 14.1954 76.5148 13.4331 77.361 12.3918L76.5849 11.7612C75.8457 12.6708 74.9479 13.3272 73.8861 13.7384L74.2472 14.6709ZM78.3114 15.9962C77.2574 14.8385 75.7484 14.0892 74.1819 13.7181L73.9513 14.6912C75.3792 15.0294 76.6884 15.6989 77.572 16.6694L78.3114 15.9962ZM79.6736 19.8241C79.7712 18.3491 79.2772 17.0659 78.3128 15.9977L77.5706 16.6679C78.3675 17.5505 78.7542 18.5728 78.6758 19.758L79.6736 19.8241ZM78.7989 22.9933C79.3937 22.095 79.6747 20.9287 79.6747 19.7911H78.6747C78.6747 20.7816 78.4272 21.7434 77.9651 22.4412L78.7989 22.9933ZM76.5269 25.2734C77.4544 24.713 78.3323 23.9416 78.8299 22.9396L77.9342 22.4949C77.5511 23.2664 76.8437 23.9137 76.0098 24.4174L76.5269 25.2734ZM73.364 26.49C74.4056 26.2993 75.5153 25.8295 76.509 25.2837L76.0277 24.4072C75.0839 24.9255 74.0799 25.3423 73.1839 25.5063L73.364 26.49ZM68.6944 26.9415C70.3175 26.9415 71.8453 26.7598 73.3615 26.4905L73.1865 25.5059C71.7083 25.7685 70.2417 25.9415 68.6944 25.9415V26.9415ZM58.126 26.9415H68.6944V25.9415H58.126V26.9415ZM67.9017 12.6406H61.8249V13.6406H67.9017V12.6406ZM71.348 12.3805C70.1962 12.5589 69.1056 12.7259 67.9376 12.6419L67.8659 13.6393C69.1638 13.7326 70.363 13.5449 71.501 13.3687L71.348 12.3805ZM71.3265 12.3843L71.3264 12.3843L71.5226 13.3649L71.5226 13.3648L71.3265 12.3843ZM73.1834 11.3695C72.6406 11.9161 72.0241 12.2281 71.3153 12.3866L71.5337 13.3625C72.4102 13.1664 73.2029 12.769 73.893 12.0742L73.1834 11.3695ZM73.7428 9.68233C73.7428 10.3689 73.5161 10.9643 73.153 11.403L73.9234 12.0406C74.441 11.4152 74.7428 10.5919 74.7428 9.68233H73.7428ZM73.1914 7.88965C73.5244 8.47634 73.7428 9.00829 73.7428 9.68233H74.7428C74.7428 8.76026 74.4327 8.05079 74.0611 7.39606L73.1914 7.88965ZM71.5796 6.88937C72.2372 7.03652 72.8517 7.49122 73.2411 7.96165L74.0114 7.32405C73.5201 6.73041 72.7255 6.12103 71.7979 5.9135L71.5796 6.88937ZM67.4047 6.54575C68.7549 6.46079 70.2061 6.63036 71.596 6.89275L71.7815 5.91011C70.3531 5.64046 68.81 5.45534 67.3419 5.54773L67.4047 6.54575ZM61.8249 6.54674H67.3733V5.54674H61.8249V6.54674ZM62.3249 13.1406V6.04674H61.3249V13.1406H62.3249ZM61.8249 24.2813H68.8705V23.2813H61.8249V24.2813ZM61.413 15.9725L61.3249 23.7757L62.3249 23.787L62.4129 15.9838L61.413 15.9725ZM68.3421 15.4781H61.913V16.4781H68.3421V15.4781ZM72.611 15.9386C71.2277 15.5672 69.7678 15.4781 68.3421 15.4781V16.4781C69.7345 16.4781 71.0929 16.5664 72.3517 16.9044L72.611 15.9386ZM75.0638 17.3388C74.4774 16.6499 73.5752 16.0291 72.5314 15.924L72.4313 16.919C73.1489 16.9912 73.832 17.4345 74.3024 17.987L75.0638 17.3388ZM75.9757 19.8797C75.9757 18.9741 75.6762 18.0581 75.0638 17.3388L74.3024 17.987C74.7468 18.5091 74.9757 19.1892 74.9757 19.8797H75.9757ZM75.3325 22.1493C75.8915 21.4739 75.9757 20.6084 75.9757 19.8797H74.9757C74.9757 20.5698 74.8838 21.1231 74.5621 21.5117L75.3325 22.1493ZM73.8169 23.4871C74.3301 23.1426 74.9475 22.7359 75.3642 22.1066L74.5304 21.5545C74.2426 21.9892 73.8032 22.2919 73.2595 22.6568L73.8169 23.4871ZM71.487 24.1887C72.2609 24.0913 73.0223 23.8012 73.7148 23.5397L73.3616 22.6042C72.645 22.8747 71.9972 23.1166 71.3621 23.1966L71.487 24.1887ZM68.8706 24.2813C69.7484 24.2813 70.5653 24.2817 71.4746 24.1901L71.3744 23.1952C70.5224 23.281 69.754 23.2813 68.8706 23.2813V24.2813ZM68.8705 24.2813H68.8706V23.2813H68.8705V24.2813ZM84.3992 3.91859V18.6383H85.3992V3.91859H84.3992ZM98.55 3.41859H84.8992V4.41859H98.55V3.41859ZM99.05 6.75612V3.91859H98.05V6.75612H99.05ZM88.5101 7.25612H98.55V6.25612H88.5101V7.25612ZM89.0101 13.4066V6.75612H88.0101V13.4066H89.0101ZM97.8455 12.9066H88.5101V13.9066H97.8455V12.9066ZM98.3455 16.2441V13.4066H97.3455V16.2441H98.3455ZM88.5101 16.7441H97.8455V15.7441H88.5101V16.7441ZM89.0101 19.1703V16.2441H88.0101V19.1703H89.0101ZM90.2568 22.2598C89.3978 21.4735 88.9318 20.2911 89.0088 19.2057L88.0113 19.135C87.9122 20.5324 88.503 22.0102 89.5816 22.9974L90.2568 22.2598ZM93.9704 23.37C92.6461 23.37 91.3441 23.0375 90.2111 22.2227L89.6272 23.0345C90.9602 23.9931 92.4765 24.37 93.9704 24.37V23.37ZM98.55 23.37H93.9704V24.37H98.55V23.37ZM99.05 26.7075V23.87H98.05V26.7075H99.05ZM94.5869 27.2075H98.55V26.2075H94.5869V27.2075ZM86.9557 25.1398C88.6746 26.582 91.284 27.2075 94.5869 27.2075V26.2075C91.3726 26.2075 89.0501 25.5917 87.5985 24.3737L86.9557 25.1398ZM84.3992 18.6383C84.3992 21.4122 85.2324 23.5024 86.9325 25.1191L87.6216 24.3944C86.1513 22.9962 85.3992 21.1847 85.3992 18.6383H84.3992ZM120.596 23.7813V26.6189H121.596V23.7813H120.596ZM110.616 24.2813H121.096V23.2813H110.616V24.2813ZM110.116 3.91859V23.7813H111.116V3.91859H110.116ZM106.917 4.41859H110.616V3.41859H106.917V4.41859ZM107.417 26.6189V3.91859H106.417V26.6189H107.417ZM121.096 26.1189H106.917V27.1189H121.096V26.1189Z" fill="#323F56"/>
<path fill-rule="evenodd" clip-rule="evenodd" d="M179.046 10.9783C178.342 12.3971 177.901 13.9932 177.901 15.5006C177.813 17.0967 178.077 18.6928 178.958 20.0229C179.751 21.4417 180.808 22.6831 182.041 23.7472C183.45 24.8999 184.947 25.7867 186.62 26.4074C188.293 27.0281 190.143 27.3828 191.992 27.3828C193.842 27.3828 195.779 27.0281 197.541 26.4074C199.214 25.7867 200.799 24.8999 202.12 23.7472C203.353 22.7718 204.41 21.4417 205.115 20.0229C205.819 18.6042 206.26 17.0967 206.26 15.5006C206.26 13.8158 205.819 12.2197 205.115 10.8896C204.41 9.47084 203.353 8.22942 202.12 7.16535C200.711 6.0126 199.214 5.12587 197.629 4.50516C195.867 3.88445 193.93 3.52975 192.08 3.52975C190.231 3.52975 188.382 3.88445 186.62 4.50516C184.947 5.12587 183.362 6.0126 182.041 7.16535C180.808 8.22942 179.751 9.55952 179.046 10.9783ZM156.324 26.7621H153.242V23.6585H156.148C157.293 23.7472 158.262 23.3038 159.142 22.6831C159.935 22.0624 160.64 21.2644 161.256 20.3776C161.784 19.4022 162.313 18.4268 162.577 17.4514C162.929 16.3873 163.282 15.5006 163.634 14.7026C164.074 13.6385 164.515 12.5744 164.955 11.2443C165.395 10.0029 166.1 8.76146 166.893 7.60871C167.597 6.45596 168.566 5.48056 169.711 4.77118C170.944 3.97312 172.353 3.52975 173.762 3.61843H177.197V6.81066H175.083C173.85 6.72198 172.793 7.16535 171.824 7.87473C170.944 8.49544 170.239 9.38217 169.711 10.3576C169.182 11.333 168.566 12.4857 168.302 13.4611C167.861 14.6139 167.509 15.5893 167.157 16.5646L167.157 16.5647C166.54 18.2495 165.836 19.8456 164.955 21.353C164.338 22.5058 163.634 23.5699 162.665 24.4566C161.961 25.166 160.992 25.698 160.023 26.1414C158.614 26.4961 157.469 26.7621 156.324 26.7621ZM181.6 15.5006C181.6 16.742 181.864 17.8061 182.393 18.8702C182.921 20.0229 183.714 20.9983 184.595 21.7964C187.765 24.5453 192.169 25.3433 196.044 23.8359C197.277 23.3925 198.333 22.6831 199.39 21.7964C200.359 20.9983 201.064 20.0229 201.592 18.8702C202.12 17.8061 202.385 16.6534 202.385 15.5006C202.385 14.2592 202.12 13.1951 201.592 12.131C201.064 10.9783 200.359 10.0029 199.39 9.20483C198.422 8.3181 197.277 7.69738 196.044 7.16535C194.811 6.72198 193.313 6.45596 191.992 6.45596C189.262 6.36729 186.62 7.43137 184.595 9.20483C183.626 10.0029 182.921 10.9783 182.393 12.131C181.952 13.1951 181.6 14.2592 181.6 15.5006ZM225.635 17.008H216.212V27.0281H212.513V12.0424C212.513 9.2935 213.305 7.34269 214.979 6.0126C216.652 4.6825 219.118 3.97312 222.377 3.97312H226.428V6.81066H221.848C220.351 6.72198 218.942 7.16535 217.709 8.05208C216.74 8.93881 216.212 10.1802 216.3 11.5103V14.1705H225.811L225.635 17.008ZM243.425 6.81066H250.559V4.06179H232.505V6.81066H239.726V26.9394H243.425V6.81066Z" fill="#323F56"/>
<path d="M177.901 15.5006L178.4 15.5282L178.401 15.5144V15.5006H177.901ZM179.046 10.9783L179.494 11.2007L179.494 11.2007L179.046 10.9783ZM178.958 20.0229L179.395 19.7791L179.385 19.7626L179.375 19.7469L178.958 20.0229ZM182.041 23.7472L181.714 24.1259L181.724 24.1342L182.041 23.7472ZM186.62 26.4074L186.794 25.9386L186.794 25.9386L186.62 26.4074ZM197.541 26.4074L197.707 26.879L197.715 26.8762L197.541 26.4074ZM202.12 23.7472L201.81 23.3551L201.801 23.3625L201.792 23.3705L202.12 23.7472ZM205.115 20.0229L204.667 19.8005L204.667 19.8005L205.115 20.0229ZM205.115 10.8896L204.667 11.1121L204.673 11.1237L205.115 10.8896ZM202.12 7.16535L202.447 6.78669L202.437 6.77835L202.12 7.16535ZM197.629 4.50516L197.811 4.03958L197.803 4.03644L197.795 4.03358L197.629 4.50516ZM186.62 4.50516L186.454 4.03352L186.446 4.03637L186.62 4.50516ZM182.041 7.16535L182.367 7.54388L182.369 7.54208L182.041 7.16535ZM153.242 26.7621H152.742V27.2621H153.242V26.7621ZM153.242 23.6585V23.1585H152.742V23.6585H153.242ZM156.148 23.6585L156.187 23.16L156.167 23.1585H156.148V23.6585ZM159.142 22.6831L159.43 23.0918L159.441 23.0845L159.451 23.0768L159.142 22.6831ZM161.256 20.3776L161.667 20.663L161.682 20.6402L161.696 20.6158L161.256 20.3776ZM162.577 17.4514L162.102 17.2943L162.098 17.3074L162.094 17.3207L162.577 17.4514ZM163.634 14.7026L164.091 14.9045L164.096 14.8937L163.634 14.7026ZM164.955 11.2443L164.484 11.0771L164.48 11.0872L164.955 11.2443ZM166.893 7.60871L167.305 7.892L167.312 7.88093L167.319 7.86946L166.893 7.60871ZM169.711 4.77118L169.974 5.19629L169.982 5.19092L169.711 4.77118ZM173.762 3.61843L173.731 4.11744L173.746 4.11843H173.762V3.61843ZM177.197 3.61843H177.697V3.11843H177.197V3.61843ZM177.197 6.81066V7.31066H177.697V6.81066H177.197ZM175.083 6.81066L175.047 7.30937L175.065 7.31066H175.083V6.81066ZM171.824 7.87473L172.113 8.28349L172.12 8.27814L171.824 7.87473ZM169.711 10.3576L170.15 10.5957L170.15 10.5957L169.711 10.3576ZM168.302 13.4611L168.769 13.6396L168.778 13.6161L168.784 13.5919L168.302 13.4611ZM167.157 16.5646L166.686 16.3947L166.682 16.4065L167.157 16.5646ZM167.157 16.5647L167.626 16.7365L167.629 16.7297L167.631 16.7228L167.157 16.5647ZM164.955 21.353L164.523 21.1008L164.519 21.1089L164.514 21.1172L164.955 21.353ZM162.665 24.4566L162.328 24.0878L162.319 24.0958L162.31 24.1042L162.665 24.4566ZM160.023 26.1414L160.145 26.6262L160.19 26.6151L160.231 26.596L160.023 26.1414ZM182.393 18.8702L182.847 18.6618L182.844 18.6548L182.841 18.6478L182.393 18.8702ZM184.595 21.7964L184.259 22.167L184.267 22.1742L184.595 21.7964ZM196.044 23.8359L195.874 23.3652L195.862 23.3699L196.044 23.8359ZM199.39 21.7964L199.072 21.4105L199.069 21.4134L199.39 21.7964ZM201.592 18.8702L201.144 18.6478L201.141 18.6548L201.138 18.6618L201.592 18.8702ZM201.592 12.131L201.138 12.3394L201.141 12.3465L201.144 12.3534L201.592 12.131ZM199.39 9.20483L199.053 9.57365L199.062 9.58245L199.072 9.59074L199.39 9.20483ZM196.044 7.16535L196.242 6.70626L196.227 6.7001L196.213 6.69484L196.044 7.16535ZM191.992 6.45596L191.976 6.9557L191.984 6.95596H191.992V6.45596ZM184.595 9.20483L184.912 9.59074L184.918 9.58597L184.924 9.58102L184.595 9.20483ZM182.393 12.131L181.938 11.9227L181.934 11.9312L181.931 11.9398L182.393 12.131ZM216.212 17.008V16.508H215.712V17.008H216.212ZM225.635 17.008V17.508H226.105L226.134 17.039L225.635 17.008ZM216.212 27.0281V27.5281H216.712V27.0281H216.212ZM212.513 27.0281H212.013V27.5281H212.513V27.0281ZM214.979 6.0126L214.668 5.62119L214.668 5.62119L214.979 6.0126ZM226.428 3.97312H226.928V3.47312H226.428V3.97312ZM226.428 6.81066V7.31066H226.928V6.81066H226.428ZM221.848 6.81066L221.819 7.30978L221.833 7.31066H221.848V6.81066ZM217.709 8.05208L217.417 7.64615L217.393 7.66336L217.371 7.68325L217.709 8.05208ZM216.3 11.5103H216.8V11.4938L216.799 11.4773L216.3 11.5103ZM216.3 14.1705H215.8V14.6705H216.3V14.1705ZM225.811 14.1705L226.31 14.2015L226.343 13.6705H225.811V14.1705ZM250.559 6.81066V7.31066H251.059V6.81066H250.559ZM243.425 6.81066V6.31066H242.925V6.81066H243.425ZM250.559 4.06179H251.059V3.56179H250.559V4.06179ZM232.505 4.06179V3.56179H232.005V4.06179H232.505ZM232.505 6.81066H232.005V7.31066H232.505V6.81066ZM239.726 6.81066H240.226V6.31066H239.726V6.81066ZM239.726 26.9394H239.226V27.4394H239.726V26.9394ZM243.425 26.9394V27.4394H243.925V26.9394H243.425ZM178.401 15.5006C178.401 14.0853 178.816 12.5652 179.494 11.2007L178.598 10.7559C177.867 12.2289 177.401 13.901 177.401 15.5006H178.401ZM179.375 19.7469C178.572 18.5347 178.316 17.0563 178.4 15.5282L177.402 15.4731C177.31 17.1371 177.582 18.851 178.541 20.299L179.375 19.7469ZM182.367 23.3687C181.173 22.3378 180.155 21.1407 179.395 19.7791L178.522 20.2668C179.346 21.7427 180.442 23.0284 181.714 24.1257L182.367 23.3687ZM186.794 25.9386C185.177 25.3389 183.728 24.4815 182.357 23.3602L181.724 24.1342C183.172 25.3184 184.716 26.2345 186.446 26.8762L186.794 25.9386ZM191.992 26.8828C190.205 26.8828 188.415 26.5397 186.794 25.9386L186.446 26.8762C188.172 27.5164 190.081 27.8828 191.992 27.8828V26.8828ZM197.375 25.9358C195.662 26.5392 193.781 26.8828 191.992 26.8828V27.8828C193.903 27.8828 195.896 27.517 197.707 26.879L197.375 25.9358ZM201.792 23.3705C200.523 24.4773 198.993 25.3355 197.367 25.9386L197.715 26.8762C199.435 26.2379 201.076 25.3226 202.449 24.1239L201.792 23.3705ZM204.667 19.8005C203.994 21.1567 202.982 22.4277 201.81 23.3551L202.431 24.1393C203.724 23.1159 204.827 21.7267 205.563 20.2453L204.667 19.8005ZM205.76 15.5006C205.76 17.0024 205.346 18.4336 204.667 19.8005L205.563 20.2453C206.293 18.7747 206.76 17.1911 206.76 15.5006H205.76ZM204.673 11.1237C205.341 12.3856 205.76 13.9018 205.76 15.5006H206.76C206.76 13.7298 206.297 12.0538 205.557 10.6556L204.673 11.1237ZM201.794 7.54388C202.99 8.57601 203.999 9.76682 204.667 11.112L205.563 10.6672C204.822 9.17487 203.717 7.88283 202.447 6.78682L201.794 7.54388ZM197.447 4.97074C198.98 5.57115 200.432 6.43035 201.804 7.55235L202.437 6.77835C200.99 5.59485 199.448 4.68059 197.811 4.03958L197.447 4.97074ZM192.08 4.02975C193.869 4.02975 195.751 4.37336 197.463 4.97673L197.795 4.03358C195.984 3.39553 193.991 3.02975 192.08 3.02975V4.02975ZM186.786 4.97673C188.501 4.37238 190.295 4.02975 192.08 4.02975V3.02975C190.167 3.02975 188.262 3.39651 186.454 4.03358L186.786 4.97673ZM182.369 7.54208C183.638 6.43524 185.168 5.57709 186.794 4.97394L186.446 4.03637C184.726 4.67465 183.085 5.58995 181.712 6.78861L182.369 7.54208ZM179.494 11.2007C180.167 9.84588 181.181 8.5678 182.367 7.54388L181.714 6.78682C180.434 7.89104 179.335 9.27315 178.598 10.7559L179.494 11.2007ZM153.242 27.2621H156.324V26.2621H153.242V27.2621ZM152.742 23.6585V26.7621H153.742V23.6585H152.742ZM156.148 23.1585H153.242V24.1585H156.148V23.1585ZM158.854 22.2744C158.021 22.8621 157.168 23.236 156.187 23.16L156.109 24.157C157.418 24.2584 158.503 23.7456 159.43 23.0918L158.854 22.2744ZM160.846 20.0922C160.249 20.9496 159.578 21.7072 158.834 22.2895L159.451 23.0768C160.292 22.4176 161.03 21.5791 161.667 20.663L160.846 20.0922ZM162.094 17.3207C161.848 18.2292 161.352 19.1516 160.816 20.1395L161.696 20.6158C162.217 19.6528 162.777 18.6244 163.06 17.5821L162.094 17.3207ZM163.177 14.5006C162.818 15.312 162.46 16.2137 162.102 17.2943L163.052 17.6086C163.399 16.561 163.745 15.6892 164.091 14.9045L163.177 14.5006ZM164.48 11.0872C164.046 12.3981 163.612 13.447 163.172 14.5114L164.096 14.8937C164.536 13.83 164.983 12.7507 165.43 11.4014L164.48 11.0872ZM166.481 7.32542C165.674 8.49905 164.944 9.78033 164.484 11.0772L165.426 11.4115C165.847 10.2254 166.526 9.02387 167.305 7.892L166.481 7.32542ZM169.447 4.34615C168.236 5.09689 167.211 6.12864 166.466 7.34796L167.319 7.86946C167.983 6.78328 168.896 5.86423 169.974 5.1962L169.447 4.34615ZM173.793 3.11941C172.258 3.02281 170.744 3.50654 169.439 4.35143L169.982 5.19092C171.143 4.4397 172.448 4.0367 173.731 4.11744L173.793 3.11941ZM177.197 3.11843H173.762V4.11843H177.197V3.11843ZM177.697 6.81066V3.61843H176.697V6.81066H177.697ZM175.083 7.31066H177.197V6.31066H175.083V7.31066ZM172.12 8.27814C173.027 7.61354 173.969 7.23183 175.047 7.30937L175.119 6.31194C173.731 6.21214 172.559 6.71715 171.529 7.47132L172.12 8.27814ZM170.15 10.5957C170.653 9.66879 171.311 8.84861 172.112 8.28342L171.536 7.46604C170.577 8.14227 169.826 9.09555 169.271 10.1194L170.15 10.5957ZM168.784 13.5919C169.03 12.6838 169.614 11.5849 170.15 10.5957L169.271 10.1194C168.75 11.081 168.101 12.2877 167.819 13.3304L168.784 13.5919ZM167.627 16.7345C167.979 15.759 168.33 14.7875 168.769 13.6396L167.835 13.2827C167.392 14.4402 167.039 15.4196 166.686 16.3948L167.627 16.7345ZM167.631 16.7228L167.631 16.7228L166.682 16.4065L166.682 16.4066L167.631 16.7228ZM165.387 21.6053C166.286 20.0654 167.003 18.4407 167.626 16.7365L166.687 16.3929C166.078 18.0582 165.385 19.6257 164.523 21.1008L165.387 21.6053ZM163.003 24.8254C164.03 23.8853 164.766 22.7668 165.396 21.5888L164.514 21.1172C163.911 22.2448 163.238 23.2544 162.328 24.0878L163.003 24.8254ZM160.231 26.596C161.213 26.1467 162.25 25.5845 163.02 24.8089L162.31 24.1042C161.672 24.7474 160.771 25.2493 159.815 25.6867L160.231 26.596ZM156.324 27.2621C157.54 27.2621 158.742 26.9793 160.145 26.6262L159.901 25.6565C158.485 26.0128 157.398 26.2621 156.324 26.2621V27.2621ZM182.841 18.6478C182.345 17.6506 182.1 16.6625 182.1 15.5006H181.1C181.1 16.8216 181.383 17.9616 181.945 19.0926L182.841 18.6478ZM184.93 21.4259C184.088 20.6625 183.342 19.7399 182.847 18.6618L181.938 19.0785C182.501 20.3059 183.34 21.3342 184.259 22.1669L184.93 21.4259ZM195.862 23.3699C192.164 24.8086 187.956 24.0488 184.922 21.4186L184.267 22.1742C187.574 25.0417 192.173 25.8781 196.225 24.3019L195.862 23.3699ZM199.069 21.4134C198.036 22.2796 197.031 22.9494 195.874 23.3654L196.213 24.3064C197.522 23.8356 198.63 23.0866 199.712 22.1794L199.069 21.4134ZM201.138 18.6618C200.636 19.7558 199.975 20.667 199.072 21.4105L199.708 22.1823C200.743 21.3296 201.491 20.29 202.047 19.0785L201.138 18.6618ZM201.885 15.5006C201.885 16.5768 201.638 17.6534 201.144 18.6478L202.04 19.0926C202.603 17.9588 202.885 16.7299 202.885 15.5006H201.885ZM201.144 12.3534C201.639 13.3506 201.885 14.3388 201.885 15.5006H202.885C202.885 14.1796 202.602 13.0396 202.04 11.9086L201.144 12.3534ZM199.072 9.59074C199.975 10.3342 200.636 11.2454 201.138 12.3394L202.047 11.9227C201.491 10.7112 200.743 9.67159 199.708 8.81891L199.072 9.59074ZM195.846 7.62443C197.055 8.14622 198.142 8.74052 199.053 9.57365L199.728 8.836C198.701 7.89568 197.498 7.24855 196.242 6.70626L195.846 7.62443ZM191.992 6.95596C193.255 6.95596 194.695 7.21168 195.874 7.63585L196.213 6.69484C194.926 6.23229 193.372 5.95596 191.992 5.95596V6.95596ZM184.924 9.58102C186.865 7.88156 189.386 6.87159 191.976 6.9557L192.009 5.95623C189.138 5.86299 186.375 6.98117 184.265 8.82863L184.924 9.58102ZM182.847 12.3394C183.349 11.2454 184.01 10.3342 184.912 9.59074L184.277 8.81891C183.242 9.67159 182.494 10.7112 181.938 11.9227L182.847 12.3394ZM182.1 15.5006C182.1 14.3577 182.423 13.3662 182.855 12.3222L181.931 11.9398C181.482 13.024 181.1 14.1606 181.1 15.5006H182.1ZM216.212 17.508H225.635V16.508H216.212V17.508ZM216.712 27.0281V17.008H215.712V27.0281H216.712ZM212.513 27.5281H216.212V26.5281H212.513V27.5281ZM212.013 12.0424V27.0281H213.013V12.0424H212.013ZM214.668 5.62119C212.841 7.07282 212.013 9.18982 212.013 12.0424H213.013C213.013 9.39718 213.769 7.61257 215.29 6.40401L214.668 5.62119ZM222.377 3.47312C219.054 3.47312 216.461 4.19525 214.668 5.62119L215.29 6.40401C216.843 5.16976 219.182 4.47312 222.377 4.47312V3.47312ZM226.428 3.47312H222.377V4.47312H226.428V3.47312ZM226.928 6.81066V3.97312H225.928V6.81066H226.928ZM221.848 7.31066H226.428V6.31066H221.848V7.31066ZM218.001 8.458C219.148 7.63304 220.445 7.22842 221.819 7.30978L221.878 6.31153C220.257 6.21555 218.736 6.69766 217.417 7.64615L218.001 8.458ZM216.799 11.4773C216.721 10.3055 217.185 9.20981 218.046 8.4209L217.371 7.68325C216.296 8.6678 215.702 10.055 215.801 11.5434L216.799 11.4773ZM216.8 14.1705V11.5103H215.8V14.1705H216.8ZM225.811 13.6705H216.3V14.6705H225.811V13.6705ZM226.134 17.039L226.31 14.2015L225.312 14.1395L225.136 16.9771L226.134 17.039ZM250.559 6.31066H243.425V7.31066H250.559V6.31066ZM250.059 4.06179V6.81066H251.059V4.06179H250.059ZM232.505 4.56179H250.559V3.56179H232.505V4.56179ZM233.005 6.81066V4.06179H232.005V6.81066H233.005ZM239.726 6.31066H232.505V7.31066H239.726V6.31066ZM240.226 26.9394V6.81066H239.226V26.9394H240.226ZM243.425 26.4394H239.726V27.4394H243.425V26.4394ZM242.925 6.81066V26.9394H243.925V6.81066H242.925Z" fill="#323F56"/>
<path fill-rule="evenodd" clip-rule="evenodd" d="M58.4999 41.9783C58.5342 42.3957 58.6265 42.75 58.7768 43.0413C58.927 43.3326 59.1202 43.5696 59.3563 43.7522C59.5925 43.9348 59.8651 44.0674 60.1741 44.15C60.4832 44.2326 60.8138 44.2739 61.1658 44.2739C61.5779 44.2739 61.9342 44.2217 62.2348 44.1174C62.5353 44.013 62.78 43.8717 62.9688 43.6935C63.1577 43.5152 63.2973 43.3087 63.3874 43.0739C63.4776 42.8391 63.5226 42.5913 63.5226 42.3304C63.5226 41.9652 63.4411 41.6696 63.2779 41.4435C63.1148 41.2174 62.9023 41.0326 62.6404 40.8891C62.3786 40.7457 62.0781 40.6304 61.7389 40.5435C61.3998 40.4565 61.0521 40.3717 60.6957 40.2891C60.3394 40.2065 59.9917 40.1087 59.6526 39.9957C59.3134 39.8826 59.0129 39.7304 58.751 39.5391C58.4892 39.3478 58.2767 39.1022 58.1135 38.8022C57.9504 38.5022 57.8688 38.1217 57.8688 37.6609C57.8688 37.3391 57.9354 37.0261 58.0685 36.7217C58.2015 36.4174 58.399 36.1478 58.6609 35.913C58.9228 35.6783 59.2512 35.4913 59.6461 35.3522C60.0411 35.213 60.4961 35.1435 61.0113 35.1435C61.535 35.1435 61.9922 35.2174 62.3829 35.3652C62.7735 35.513 63.0976 35.7152 63.3552 35.9717C63.6128 36.2283 63.806 36.5261 63.9348 36.8652C64.0635 37.2043 64.1279 37.5652 64.1279 37.9478H63.2908C63.2908 37.5913 63.2286 37.2826 63.1041 37.0217C62.9796 36.7609 62.81 36.5478 62.5954 36.3826C62.3807 36.2174 62.136 36.0957 61.8613 36.0174C61.5865 35.9391 61.3032 35.9 61.0113 35.9C60.5648 35.9 60.1892 35.963 59.8844 36.0891C59.5796 36.2152 59.337 36.3783 59.1567 36.5783C58.9764 36.7783 58.8519 37 58.7832 37.2435C58.7145 37.487 58.7017 37.7304 58.7446 37.9739C58.7961 38.2783 58.9163 38.5217 59.1052 38.7043C59.2941 38.887 59.5259 39.037 59.8007 39.1543C60.0754 39.2717 60.3781 39.3674 60.7086 39.4413C61.0392 39.5152 61.3762 39.5935 61.7196 39.6761C62.063 39.7587 62.3957 39.8565 62.7177 39.9696C63.0397 40.0826 63.3252 40.2348 63.5741 40.4261C63.8231 40.6174 64.0228 40.863 64.173 41.163C64.3233 41.463 64.3984 41.8391 64.3984 42.2913C64.3984 43.1609 64.1022 43.8348 63.5098 44.313C62.9173 44.7913 62.0845 45.0304 61.0113 45.0304C60.5305 45.0304 60.084 44.9674 59.6719 44.8413C59.2597 44.7152 58.9034 44.5239 58.6029 44.2674C58.3024 44.0109 58.0685 43.6935 57.901 43.3152C57.7336 42.937 57.6499 42.4913 57.6499 41.9783H58.4999ZM68.5454 44.9652C68.1161 44.9565 67.7147 44.8783 67.3412 44.7304C66.9677 44.5826 66.6414 44.3609 66.3624 44.0652C66.0834 43.7696 65.8623 43.4 65.6991 42.9565C65.536 42.513 65.4544 41.9957 65.4544 41.4043C65.4544 40.9087 65.5188 40.4457 65.6476 40.0152C65.7764 39.5848 65.9696 39.2087 66.2272 38.887C66.4848 38.5652 66.8067 38.3109 67.1931 38.1239C67.5795 37.937 68.0302 37.8435 68.5454 37.8435C69.0691 37.8435 69.5241 37.937 69.9105 38.1239C70.2969 38.3109 70.6188 38.563 70.8764 38.8804C71.134 39.1978 71.325 39.5739 71.4495 40.0087C71.574 40.4435 71.6363 40.9087 71.6363 41.4043C71.6363 41.9435 71.5633 42.4304 71.4173 42.8652C71.2714 43.3 71.0632 43.6739 70.7927 43.987C70.5222 44.3 70.196 44.5413 69.8139 44.7109C69.4318 44.8804 69.009 44.9652 68.5454 44.9652ZM70.812 41.4044C70.812 41.0043 70.7691 40.6304 70.6832 40.2826C70.5974 39.9348 70.4643 39.6326 70.284 39.3761C70.1037 39.1196 69.8719 38.9174 69.5885 38.7696C69.3052 38.6217 68.9575 38.5478 68.5454 38.5478C68.1418 38.5478 67.7962 38.6283 67.5086 38.7891C67.221 38.95 66.987 39.163 66.8067 39.4283C66.6264 39.6935 66.4933 39.9978 66.4075 40.3413C66.3216 40.6848 66.2787 41.0391 66.2787 41.4044C66.2787 41.8217 66.3281 42.2065 66.4268 42.5587C66.5255 42.9109 66.6693 43.213 66.8582 43.4652C67.0471 43.7174 67.2832 43.913 67.5666 44.0522C67.8499 44.1913 68.1762 44.2609 68.5454 44.2609C68.9489 44.2609 69.2945 44.1804 69.5821 44.0196C69.8697 43.8587 70.1037 43.6435 70.284 43.3739C70.4643 43.1043 70.5974 42.8 70.6832 42.4609C70.7691 42.1217 70.812 41.7696 70.812 41.4044ZM72.3832 38.6783V38.0261H73.3749V36.9565C73.3749 36.4174 73.4822 35.9913 73.6969 35.6783C73.9115 35.3652 74.2764 35.2087 74.7916 35.2087C74.9118 35.2087 75.0234 35.213 75.1264 35.2217C75.2294 35.2304 75.3325 35.2435 75.4355 35.2609V35.9783C75.2638 35.9348 75.1092 35.913 74.9719 35.913C74.7744 35.913 74.6198 35.95 74.5082 36.0239C74.3966 36.0978 74.3151 36.1957 74.2635 36.3174C74.212 36.4391 74.1798 36.5761 74.1669 36.7283C74.1541 36.8804 74.1476 37.0348 74.1476 37.1913V38.0261H75.4355V38.6783H74.1476V44.7826H73.3749V38.6783H72.3832ZM78.9772 44.8087C78.8827 44.8261 78.7582 44.8565 78.6037 44.9C78.4491 44.9435 78.2774 44.9652 78.0885 44.9652C77.7022 44.9652 77.4081 44.8674 77.2063 44.6717C77.0046 44.4761 76.9037 44.1261 76.9037 43.6217V38.6783H75.9635V38.0261H76.9037V36.1478H77.6764V38.0261H78.9257V38.6783H77.6764V43.3087C77.6764 43.4739 77.6807 43.6174 77.6893 43.7391C77.6979 43.8609 77.7236 43.9609 77.7666 44.0391C77.8095 44.1174 77.876 44.1739 77.9662 44.2087C78.0563 44.2435 78.183 44.2609 78.3461 44.2609C78.4491 44.2609 78.5543 44.2522 78.6616 44.2348C78.769 44.2174 78.8741 44.1957 78.9772 44.1696V44.8087ZM85.8544 43.7391L87.606 38.0261H88.3916L86.2279 44.7826H85.4037L83.9484 39.1087H83.9226L82.4416 44.7826H81.5143L79.4794 38.0261H80.2522L81.9779 43.7913L83.5234 38.0261H84.3863L85.8544 43.7391ZM93.8779 41.2348C93.5517 41.3739 93.2211 41.4652 92.8863 41.5087C92.5514 41.5522 92.2166 41.587 91.8817 41.613C91.2893 41.6565 90.8278 41.7913 90.4972 42.0174C90.1667 42.2435 90.0014 42.587 90.0014 43.0478C90.0014 43.2565 90.0422 43.437 90.1238 43.5891C90.2053 43.7413 90.3127 43.8674 90.4457 43.9674C90.5788 44.0674 90.7334 44.1413 90.9094 44.1891C91.0854 44.237 91.2635 44.2609 91.4438 44.2609C91.7529 44.2609 92.0534 44.2217 92.3454 44.1435C92.6373 44.0652 92.897 43.9457 93.1245 43.7848C93.3521 43.6239 93.5345 43.4196 93.6719 43.1717C93.8092 42.9239 93.8779 42.6304 93.8779 42.2913V41.2348ZM92.5772 40.8435C92.7231 40.8261 92.897 40.8 93.0988 40.7652C93.3005 40.7304 93.4658 40.6826 93.5946 40.6217C93.7234 40.5609 93.8028 40.4587 93.8329 40.3152C93.8629 40.1717 93.8779 40.0391 93.8779 39.9174C93.8779 39.5174 93.7513 39.1891 93.498 38.9326C93.2447 38.6761 92.8176 38.5478 92.2166 38.5478C91.9504 38.5478 91.7057 38.5717 91.4825 38.6196C91.2592 38.6674 91.0639 38.75 90.8965 38.8674C90.7291 38.9848 90.5917 39.1413 90.4844 39.337C90.377 39.5326 90.3062 39.7783 90.2719 40.0739H89.4863C89.512 39.6739 89.6022 39.3326 89.7567 39.05C89.9113 38.7674 90.1109 38.537 90.3556 38.3587C90.6003 38.1804 90.8836 38.05 91.2056 37.9674C91.5276 37.8848 91.8688 37.8435 92.2294 37.8435C92.5643 37.8435 92.8798 37.8804 93.176 37.9543C93.4723 38.0283 93.7298 38.1457 93.9488 38.3065C94.1677 38.4674 94.3394 38.6826 94.4639 38.9522C94.5884 39.2217 94.6507 39.5522 94.6507 39.9435V43.6217C94.6507 43.9261 94.7043 44.1196 94.8116 44.2022C94.919 44.2848 95.1358 44.2652 95.462 44.1435V44.7565C95.4019 44.7739 95.3139 44.8 95.198 44.8348C95.0821 44.8696 94.9683 44.887 94.8567 44.887C94.7365 44.887 94.6206 44.8739 94.509 44.8478C94.3802 44.8304 94.2772 44.7891 94.1999 44.7239C94.1226 44.6587 94.0604 44.5804 94.0132 44.4891C93.9659 44.3978 93.9337 44.2978 93.9166 44.1891C93.8994 44.0804 93.8908 43.9652 93.8908 43.8435C93.5645 44.2087 93.1911 44.487 92.7704 44.6783C92.3496 44.8696 91.8946 44.9652 91.4052 44.9652C91.1133 44.9652 90.8321 44.9261 90.5616 44.8478C90.2912 44.7696 90.0529 44.6478 89.8469 44.4826C89.6408 44.3174 89.4777 44.1152 89.3575 43.8761C89.2373 43.637 89.1772 43.3522 89.1772 43.0217C89.1772 41.8739 89.9542 41.1957 91.5082 40.987L92.5772 40.8435ZM97.484 44.7826H96.7113V38.0261H97.484V39.2913H97.5097C97.7244 38.7522 98.0013 38.3761 98.3404 38.163C98.6796 37.95 99.1282 37.8435 99.6863 37.8435V38.6913C99.2484 38.6826 98.8878 38.7522 98.6044 38.9C98.3211 39.0478 98.0957 39.2478 97.9283 39.5C97.7609 39.7522 97.645 40.05 97.5806 40.3935C97.5162 40.737 97.484 41.0957 97.484 41.4696V44.7826ZM105.791 40.9348C105.791 40.6043 105.746 40.2935 105.656 40.0022C105.565 39.7109 105.432 39.4587 105.256 39.2457C105.08 39.0326 104.859 38.863 104.593 38.737C104.327 38.6109 104.022 38.5478 103.679 38.5478C103.335 38.5478 103.033 38.613 102.771 38.7435C102.509 38.8739 102.286 39.0478 102.101 39.2652C101.916 39.4826 101.768 39.7348 101.657 40.0217C101.545 40.3087 101.472 40.613 101.438 40.9348H105.791ZM101.438 41.587C101.438 41.9522 101.485 42.2978 101.579 42.6239C101.674 42.95 101.813 43.2326 101.998 43.4717C102.183 43.7109 102.417 43.9022 102.7 44.0457C102.983 44.1891 103.309 44.2609 103.679 44.2609C104.185 44.2609 104.619 44.1261 104.979 43.8565C105.34 43.587 105.58 43.2044 105.701 42.7087H106.564C106.469 43.0304 106.345 43.3283 106.19 43.6022C106.036 43.8761 105.842 44.1152 105.611 44.3196C105.379 44.5239 105.104 44.6826 104.786 44.7957C104.469 44.9087 104.099 44.9652 103.679 44.9652C103.146 44.9652 102.687 44.8739 102.301 44.6913C101.914 44.5087 101.597 44.2587 101.348 43.9413C101.099 43.6239 100.914 43.25 100.794 42.8196C100.674 42.3891 100.614 41.9261 100.614 41.4304C100.614 40.9348 100.684 40.4696 100.826 40.0348C100.968 39.6 101.169 39.2196 101.431 38.8935C101.693 38.5674 102.013 38.3109 102.391 38.1239C102.769 37.937 103.198 37.8435 103.679 37.8435C104.597 37.8435 105.319 38.163 105.842 38.8022C106.366 39.4413 106.624 40.3696 106.615 41.587H101.438ZM111.818 44.7826V35.3913H114.986C115.244 35.3913 115.497 35.3978 115.746 35.4109C115.995 35.4239 116.24 35.4543 116.48 35.5022C116.721 35.55 116.955 35.6217 117.182 35.7174C117.41 35.813 117.631 35.9391 117.845 36.0957C118.154 36.3217 118.408 36.5978 118.605 36.9239C118.803 37.25 118.959 37.5935 119.075 37.9543C119.191 38.3152 119.273 38.6804 119.32 39.05C119.367 39.4196 119.391 39.7609 119.391 40.0739C119.391 40.387 119.371 40.7043 119.333 41.0261C119.294 41.3478 119.232 41.663 119.146 41.9717C119.06 42.2804 118.946 42.5761 118.805 42.8587C118.663 43.1413 118.485 43.4 118.27 43.6348C118.056 43.8783 117.822 44.0739 117.568 44.2217C117.315 44.3696 117.049 44.4848 116.77 44.5674C116.491 44.65 116.201 44.7065 115.901 44.737C115.6 44.7674 115.295 44.7826 114.986 44.7826H111.818ZM112.694 44.0261H114.793C115.188 44.0261 115.559 44.0022 115.907 43.9543C116.255 43.9065 116.609 43.787 116.97 43.5957C117.279 43.4391 117.532 43.2261 117.729 42.9565C117.927 42.687 118.084 42.3935 118.2 42.0761C118.315 41.7587 118.397 41.4261 118.444 41.0783C118.491 40.7304 118.515 40.3957 118.515 40.0739C118.515 39.7348 118.494 39.3891 118.451 39.037C118.408 38.6848 118.326 38.35 118.206 38.0326C118.086 37.7152 117.923 37.4239 117.717 37.1587C117.511 36.8935 117.244 36.6739 116.918 36.5C116.643 36.3522 116.317 36.2565 115.939 36.213C115.562 36.1696 115.179 36.1478 114.793 36.1478H112.694V44.0261ZM125.83 40.9348C125.83 40.6043 125.785 40.2935 125.695 40.0022C125.605 39.7109 125.472 39.4587 125.296 39.2457C125.12 39.0326 124.899 38.863 124.632 38.737C124.366 38.6109 124.062 38.5478 123.718 38.5478C123.375 38.5478 123.072 38.613 122.81 38.7435C122.548 38.8739 122.325 39.0478 122.14 39.2652C121.956 39.4826 121.808 39.7348 121.696 40.0217C121.584 40.3087 121.512 40.613 121.477 40.9348H125.83ZM121.477 41.587C121.477 41.9522 121.524 42.2978 121.619 42.6239C121.713 42.95 121.853 43.2326 122.037 43.4717C122.222 43.7109 122.456 43.9022 122.739 44.0457C123.023 44.1891 123.349 44.2609 123.718 44.2609C124.225 44.2609 124.658 44.1261 125.019 43.8565C125.379 43.587 125.62 43.2044 125.74 42.7087H126.603C126.508 43.0304 126.384 43.3283 126.229 43.6022C126.075 43.8761 125.882 44.1152 125.65 44.3196C125.418 44.5239 125.143 44.6826 124.826 44.7957C124.508 44.9087 124.139 44.9652 123.718 44.9652C123.186 44.9652 122.726 44.8739 122.34 44.6913C121.954 44.5087 121.636 44.2587 121.387 43.9413C121.138 43.6239 120.953 43.25 120.833 42.8196C120.713 42.3891 120.653 41.9261 120.653 41.4304C120.653 40.9348 120.724 40.4696 120.865 40.0348C121.007 39.6 121.209 39.2196 121.471 38.8935C121.733 38.5674 122.052 38.3109 122.43 38.1239C122.808 37.937 123.237 37.8435 123.718 37.8435C124.637 37.8435 125.358 38.163 125.882 38.8022C126.405 39.4413 126.663 40.3696 126.654 41.587H121.477ZM127.453 38.0261H128.29L130.454 43.8174L132.617 38.0261H133.454L130.866 44.7826H130.003L127.453 38.0261ZM139.43 40.9348C139.43 40.6043 139.385 40.2935 139.295 40.0022C139.205 39.7109 139.072 39.4587 138.896 39.2457C138.72 39.0326 138.499 38.863 138.232 38.737C137.966 38.6109 137.662 38.5478 137.318 38.5478C136.975 38.5478 136.672 38.613 136.41 38.7435C136.148 38.8739 135.925 39.0478 135.74 39.2652C135.556 39.4826 135.408 39.7348 135.296 40.0217C135.184 40.3087 135.112 40.613 135.077 40.9348H139.43ZM135.077 41.587C135.077 41.9522 135.124 42.2978 135.219 42.6239C135.313 42.95 135.453 43.2326 135.637 43.4717C135.822 43.7109 136.056 43.9022 136.339 44.0457C136.623 44.1891 136.949 44.2609 137.318 44.2609C137.825 44.2609 138.258 44.1261 138.619 43.8565C138.979 43.587 139.22 43.2044 139.34 42.7087H140.203C140.108 43.0304 139.984 43.3283 139.829 43.6022C139.675 43.8761 139.482 44.1152 139.25 44.3196C139.018 44.5239 138.743 44.6826 138.426 44.7957C138.108 44.9087 137.739 44.9652 137.318 44.9652C136.786 44.9652 136.326 44.8739 135.94 44.6913C135.554 44.5087 135.236 44.2587 134.987 43.9413C134.738 43.6239 134.553 43.25 134.433 42.8196C134.313 42.3891 134.253 41.9261 134.253 41.4304C134.253 40.9348 134.324 40.4696 134.465 40.0348C134.607 39.6 134.809 39.2196 135.071 38.8935C135.333 38.5674 135.652 38.3109 136.03 38.1239C136.408 37.937 136.837 37.8435 137.318 37.8435C138.237 37.8435 138.958 38.163 139.482 38.8022C140.005 39.4413 140.263 40.3696 140.254 41.587H135.077ZM141.877 44.7826V35.3913H142.65V44.7826H141.877ZM147.273 44.9652C146.844 44.9565 146.443 44.8783 146.069 44.7304C145.696 44.5826 145.369 44.3609 145.09 44.0652C144.811 43.7696 144.59 43.4 144.427 42.9565C144.264 42.513 144.182 41.9957 144.182 41.4043C144.182 40.9087 144.247 40.4457 144.376 40.0152C144.504 39.5848 144.698 39.2087 144.955 38.887C145.213 38.5652 145.535 38.3109 145.921 38.1239C146.307 37.937 146.758 37.8435 147.273 37.8435C147.797 37.8435 148.252 37.937 148.639 38.1239C149.025 38.3109 149.347 38.563 149.604 38.8804C149.862 39.1978 150.053 39.5739 150.178 40.0087C150.302 40.4435 150.364 40.9087 150.364 41.4043C150.364 41.9435 150.291 42.4304 150.145 42.8652C149.999 43.3 149.791 43.6739 149.521 43.987C149.25 44.3 148.924 44.5413 148.542 44.7109C148.16 44.8804 147.737 44.9652 147.273 44.9652ZM149.54 41.4044C149.54 41.0043 149.497 40.6304 149.411 40.2826C149.325 39.9348 149.192 39.6326 149.012 39.3761C148.832 39.1196 148.6 38.9174 148.317 38.7696C148.033 38.6217 147.686 38.5478 147.273 38.5478C146.87 38.5478 146.524 38.6283 146.237 38.7891C145.949 38.95 145.715 39.163 145.535 39.4283C145.354 39.6935 145.221 39.9978 145.136 40.3413C145.05 40.6848 145.007 41.0391 145.007 41.4044C145.007 41.8217 145.056 42.2065 145.155 42.5587C145.254 42.9109 145.397 43.213 145.586 43.4652C145.775 43.7174 146.011 43.913 146.295 44.0522C146.578 44.1913 146.904 44.2609 147.273 44.2609C147.677 44.2609 148.022 44.1804 148.31 44.0196C148.598 43.8587 148.832 43.6435 149.012 43.3739C149.192 43.1043 149.325 42.8 149.411 42.4609C149.497 42.1217 149.54 41.7696 149.54 41.4044ZM152.644 41.4304C152.644 41.813 152.695 42.1761 152.798 42.5196C152.901 42.863 153.05 43.163 153.243 43.4196C153.436 43.6761 153.672 43.8804 153.951 44.0326C154.23 44.1848 154.546 44.2609 154.898 44.2609C155.293 44.2609 155.638 44.1804 155.934 44.0196C156.231 43.8587 156.473 43.6391 156.662 43.3609C156.851 43.0826 156.988 42.7587 157.074 42.3891C157.16 42.0196 157.194 41.6217 157.177 41.1957C157.177 40.7696 157.119 40.3935 157.003 40.0674C156.887 39.7413 156.726 39.4652 156.52 39.2391C156.314 39.013 156.074 38.8413 155.799 38.7239C155.524 38.6065 155.224 38.5478 154.898 38.5478C154.537 38.5478 154.215 38.6217 153.932 38.7696C153.648 38.9174 153.412 39.1196 153.223 39.3761C153.034 39.6326 152.891 39.937 152.792 40.2891C152.693 40.6413 152.644 41.0217 152.644 41.4304ZM152.644 47.4435H151.871V38.0261H152.644V39.213H152.67C152.781 38.9957 152.925 38.8 153.101 38.6261C153.277 38.4522 153.47 38.3087 153.681 38.1957C153.891 38.0826 154.108 37.9957 154.331 37.9348C154.554 37.8739 154.773 37.8435 154.988 37.8435C155.529 37.8435 155.988 37.9348 156.366 38.1174C156.744 38.3 157.055 38.55 157.3 38.8674C157.544 39.1848 157.722 39.5609 157.834 39.9957C157.946 40.4304 158.001 40.8957 158.001 41.3913C158.001 41.8609 157.941 42.313 157.821 42.7478C157.701 43.1826 157.518 43.563 157.274 43.8891C157.029 44.2152 156.72 44.4761 156.346 44.6717C155.973 44.8674 155.533 44.9652 155.026 44.9652C154.554 44.9652 154.101 44.8587 153.668 44.6457C153.234 44.4326 152.893 44.1174 152.644 43.7V47.4435ZM160.32 44.7826H159.547V38.0261H160.32V39.0435H160.345C160.543 38.6522 160.826 38.3543 161.195 38.15C161.565 37.9457 161.968 37.8435 162.406 37.8435C162.715 37.8435 162.977 37.8783 163.192 37.9478C163.406 38.0174 163.589 38.1109 163.739 38.2283C163.889 38.3457 164.014 38.4826 164.112 38.6391C164.211 38.7957 164.295 38.9652 164.364 39.1478C164.587 38.7043 164.885 38.3761 165.259 38.163C165.632 37.95 166.059 37.8435 166.54 37.8435C166.995 37.8435 167.358 37.9196 167.628 38.0717C167.899 38.2239 168.107 38.4239 168.253 38.6717C168.399 38.9196 168.495 39.2043 168.543 39.5261C168.59 39.8478 168.614 40.1783 168.614 40.5174V44.7826H167.841V40.113C167.841 39.6261 167.74 39.2435 167.538 38.9652C167.336 38.687 166.961 38.5478 166.411 38.5478C166.128 38.5478 165.855 38.6109 165.593 38.737C165.332 38.863 165.102 39.0565 164.904 39.3174C164.819 39.4304 164.748 39.563 164.692 39.7152C164.636 39.8674 164.591 40.0261 164.557 40.1913C164.522 40.3565 164.499 40.5217 164.486 40.687C164.473 40.8522 164.467 41.0043 164.467 41.1435V44.7826H163.694V40.113C163.694 39.6261 163.593 39.2435 163.391 38.9652C163.189 38.687 162.814 38.5478 162.264 38.5478C161.981 38.5478 161.708 38.6109 161.446 38.737C161.185 38.863 160.955 39.0565 160.757 39.3174C160.672 39.4304 160.601 39.563 160.545 39.7152C160.489 39.8674 160.444 40.0261 160.41 40.1913C160.375 40.3565 160.352 40.5217 160.339 40.687C160.326 40.8522 160.32 41.0043 160.32 41.1435V44.7826ZM175.207 40.9348C175.207 40.6043 175.162 40.2935 175.072 40.0022C174.982 39.7109 174.849 39.4587 174.673 39.2457C174.497 39.0326 174.276 38.863 174.01 38.737C173.744 38.6109 173.439 38.5478 173.095 38.5478C172.752 38.5478 172.449 38.613 172.187 38.7435C171.926 38.8739 171.702 39.0478 171.518 39.2652C171.333 39.4826 171.185 39.7348 171.073 40.0217C170.962 40.3087 170.889 40.613 170.854 40.9348H175.207ZM170.854 41.587C170.854 41.9522 170.902 42.2978 170.996 42.6239C171.091 42.95 171.23 43.2326 171.415 43.4717C171.599 43.7109 171.833 43.9022 172.117 44.0457C172.4 44.1891 172.726 44.2609 173.095 44.2609C173.602 44.2609 174.035 44.1261 174.396 43.8565C174.757 43.587 174.997 43.2044 175.117 42.7087H175.98C175.886 43.0304 175.761 43.3283 175.607 43.6022C175.452 43.8761 175.259 44.1152 175.027 44.3196C174.795 44.5239 174.521 44.6826 174.203 44.7957C173.885 44.9087 173.516 44.9652 173.095 44.9652C172.563 44.9652 172.104 44.8739 171.717 44.6913C171.331 44.5087 171.013 44.2587 170.764 43.9413C170.515 43.6239 170.331 43.25 170.211 42.8196C170.09 42.3891 170.03 41.9261 170.03 41.4304C170.03 40.9348 170.101 40.4696 170.243 40.0348C170.384 39.6 170.586 39.2196 170.848 38.8935C171.11 38.5674 171.43 38.3109 171.807 38.1239C172.185 37.937 172.615 37.8435 173.095 37.8435C174.014 37.8435 174.735 38.163 175.259 38.8022C175.783 39.4413 176.04 40.3696 176.032 41.587H170.854ZM178.311 44.7826H177.539V38.0261H178.311V38.9652C178.62 38.6348 178.94 38.3652 179.271 38.1565C179.601 37.9478 179.998 37.8435 180.462 37.8435C180.874 37.8435 181.256 37.9152 181.608 38.0587C181.96 38.2022 182.256 38.4522 182.497 38.8087C182.66 39.0522 182.757 39.3022 182.787 39.5587C182.817 39.8152 182.832 40.0826 182.832 40.3609V44.7826H182.059V40.3739C182.059 39.7652 181.926 39.3087 181.66 39.0043C181.394 38.7 180.951 38.5478 180.333 38.5478C180.093 38.5478 179.874 38.5848 179.676 38.6587C179.479 38.7326 179.301 38.8304 179.142 38.9522C178.983 39.0739 178.848 39.213 178.736 39.3696C178.625 39.5261 178.539 39.6913 178.479 39.8652C178.401 40.0826 178.354 40.2913 178.337 40.4913C178.32 40.6913 178.311 40.9087 178.311 41.1435V44.7826ZM187.043 44.8087C186.949 44.8261 186.824 44.8565 186.67 44.9C186.515 44.9435 186.343 44.9652 186.154 44.9652C185.768 44.9652 185.474 44.8674 185.272 44.6717C185.07 44.4761 184.97 44.1261 184.97 43.6217V38.6783H184.029V38.0261H184.97V36.1478H185.742V38.0261H186.992V38.6783H185.742V43.3087C185.742 43.4739 185.747 43.6174 185.755 43.7391C185.764 43.8609 185.79 43.9609 185.832 44.0391C185.875 44.1174 185.942 44.1739 186.032 44.2087C186.122 44.2435 186.249 44.2609 186.412 44.2609C186.515 44.2609 186.62 44.2522 186.728 44.2348C186.835 44.2174 186.94 44.1957 187.043 44.1696V44.8087ZM198.557 38.1174C198.376 37.3174 198.042 36.7478 197.552 36.4087C197.063 36.0696 196.423 35.9 195.633 35.9C195.075 35.9 194.594 36.013 194.191 36.2391C193.787 36.4652 193.455 36.7696 193.193 37.1522C192.931 37.5348 192.738 37.9761 192.613 38.4761C192.489 38.9761 192.426 39.5043 192.426 40.0609C192.426 40.5826 192.48 41.0956 192.587 41.6C192.695 42.1043 192.873 42.5543 193.122 42.95C193.371 43.3457 193.706 43.6652 194.126 43.9087C194.547 44.1522 195.075 44.2739 195.711 44.2739C196.105 44.2739 196.466 44.2087 196.792 44.0783C197.119 43.9478 197.404 43.7674 197.649 43.537C197.893 43.3065 198.1 43.0348 198.267 42.7217C198.434 42.4087 198.561 42.0652 198.647 41.6913H199.561C199.458 42.1435 199.308 42.5717 199.111 42.9761C198.913 43.3804 198.653 43.7348 198.331 44.0391C198.009 44.3435 197.619 44.5848 197.159 44.763C196.7 44.9413 196.161 45.0304 195.543 45.0304C194.83 45.0304 194.221 44.8978 193.714 44.6326C193.208 44.3674 192.793 44.0087 192.471 43.5565C192.15 43.1043 191.916 42.5804 191.77 41.9848C191.624 41.3891 191.551 40.7565 191.551 40.087C191.551 39.1913 191.66 38.4304 191.879 37.8043C192.098 37.1783 192.401 36.6674 192.787 36.2717C193.173 35.8761 193.628 35.5891 194.152 35.4109C194.676 35.2326 195.247 35.1435 195.865 35.1435C196.337 35.1435 196.777 35.2065 197.185 35.3326C197.593 35.4587 197.954 35.6478 198.267 35.9C198.58 36.1522 198.838 36.463 199.04 36.8326C199.241 37.2022 199.381 37.6304 199.458 38.1174H198.557ZM203.811 44.9652C203.382 44.9565 202.981 44.8783 202.607 44.7304C202.234 44.5826 201.907 44.3609 201.628 44.0652C201.349 43.7696 201.128 43.4 200.965 42.9565C200.802 42.513 200.72 41.9957 200.72 41.4043C200.72 40.9087 200.785 40.4457 200.914 40.0152C201.042 39.5848 201.236 39.2087 201.493 38.887C201.751 38.5652 202.073 38.3109 202.459 38.1239C202.845 37.937 203.296 37.8435 203.811 37.8435C204.335 37.8435 204.79 37.937 205.176 38.1239C205.563 38.3109 205.885 38.563 206.142 38.8804C206.4 39.1978 206.591 39.5739 206.715 40.0087C206.84 40.4435 206.902 40.9087 206.902 41.4043C206.902 41.9435 206.829 42.4304 206.683 42.8652C206.537 43.3 206.329 43.6739 206.059 43.987C205.788 44.3 205.462 44.5413 205.08 44.7109C204.698 44.8804 204.275 44.9652 203.811 44.9652ZM206.078 41.4044C206.078 41.0043 206.035 40.6304 205.949 40.2826C205.863 39.9348 205.73 39.6326 205.55 39.3761C205.37 39.1196 205.138 38.9174 204.854 38.7696C204.571 38.6217 204.223 38.5478 203.811 38.5478C203.408 38.5478 203.062 38.6283 202.775 38.7891C202.487 38.95 202.253 39.163 202.073 39.4283C201.892 39.6935 201.759 39.9978 201.673 40.3413C201.588 40.6848 201.545 41.0391 201.545 41.4044C201.545 41.8217 201.594 42.2065 201.693 42.5587C201.791 42.9109 201.935 43.213 202.124 43.4652C202.313 43.7174 202.549 43.913 202.832 44.0522C203.116 44.1913 203.442 44.2609 203.811 44.2609C204.215 44.2609 204.56 44.1804 204.848 44.0196C205.136 43.8587 205.37 43.6435 205.55 43.3739C205.73 43.1043 205.863 42.8 205.949 42.4609C206.035 42.1217 206.078 41.7696 206.078 41.4044ZM208.989 44.7826H208.216V38.0261H208.989V39.0435H209.014C209.212 38.6522 209.495 38.3543 209.864 38.15C210.233 37.9457 210.637 37.8435 211.075 37.8435C211.384 37.8435 211.646 37.8783 211.861 37.9478C212.075 38.0174 212.258 38.1109 212.408 38.2283C212.558 38.3457 212.683 38.4826 212.781 38.6391C212.88 38.7957 212.964 38.9652 213.032 39.1478C213.256 38.7043 213.554 38.3761 213.928 38.163C214.301 37.95 214.728 37.8435 215.209 37.8435C215.664 37.8435 216.027 37.9196 216.297 38.0717C216.568 38.2239 216.776 38.4239 216.922 38.6717C217.068 38.9196 217.164 39.2043 217.212 39.5261C217.259 39.8478 217.282 40.1783 217.282 40.5174V44.7826H216.51V40.113C216.51 39.6261 216.409 39.2435 216.207 38.9652C216.005 38.687 215.63 38.5478 215.08 38.5478C214.797 38.5478 214.524 38.6109 214.262 38.737C214.001 38.863 213.771 39.0565 213.573 39.3174C213.488 39.4304 213.417 39.563 213.361 39.7152C213.305 39.8674 213.26 40.0261 213.226 40.1913C213.191 40.3565 213.168 40.5217 213.155 40.687C213.142 40.8522 213.136 41.0043 213.136 41.1435V44.7826H212.363V40.113C212.363 39.6261 212.262 39.2435 212.06 38.9652C211.858 38.687 211.483 38.5478 210.933 38.5478C210.65 38.5478 210.377 38.6109 210.115 38.737C209.854 38.863 209.624 39.0565 209.426 39.3174C209.341 39.4304 209.27 39.563 209.214 39.7152C209.158 39.8674 209.113 40.0261 209.079 40.1913C209.044 40.3565 209.021 40.5217 209.008 40.687C208.995 40.8522 208.989 41.0043 208.989 41.1435V44.7826ZM219.91 41.4304C219.91 41.813 219.961 42.1761 220.064 42.5196C220.167 42.863 220.315 43.163 220.509 43.4196C220.702 43.6761 220.938 43.8804 221.217 44.0326C221.496 44.1848 221.812 44.2609 222.164 44.2609C222.558 44.2609 222.904 44.1804 223.2 44.0196C223.496 43.8587 223.739 43.6391 223.928 43.3609C224.117 43.0826 224.254 42.7587 224.34 42.3891C224.426 42.0196 224.46 41.6217 224.443 41.1957C224.443 40.7696 224.385 40.3935 224.269 40.0674C224.153 39.7413 223.992 39.4652 223.786 39.2391C223.58 39.013 223.34 38.8413 223.065 38.7239C222.79 38.6065 222.49 38.5478 222.164 38.5478C221.803 38.5478 221.481 38.6217 221.198 38.7696C220.914 38.9174 220.678 39.1196 220.489 39.3761C220.3 39.6326 220.157 39.937 220.058 40.2891C219.959 40.6413 219.91 41.0217 219.91 41.4304ZM219.91 47.4435H219.137V38.0261H219.91V39.213H219.936C220.047 38.9957 220.191 38.8 220.367 38.6261C220.543 38.4522 220.736 38.3087 220.946 38.1957C221.157 38.0826 221.374 37.9957 221.597 37.9348C221.82 37.8739 222.039 37.8435 222.254 37.8435C222.795 37.8435 223.254 37.9348 223.632 38.1174C224.01 38.3 224.321 38.55 224.565 38.8674C224.81 39.1848 224.988 39.5609 225.1 39.9957C225.212 40.4304 225.267 40.8957 225.267 41.3913C225.267 41.8609 225.207 42.313 225.087 42.7478C224.967 43.1826 224.784 43.563 224.54 43.8891C224.295 44.2152 223.986 44.4761 223.612 44.6717C223.239 44.8674 222.799 44.9652 222.292 44.9652C221.82 44.9652 221.367 44.8587 220.934 44.6457C220.5 44.4326 220.159 44.1174 219.91 43.7V47.4435ZM231.282 41.2348C230.955 41.3739 230.625 41.4652 230.29 41.5087C229.955 41.5522 229.62 41.587 229.285 41.613C228.693 41.6565 228.232 41.7913 227.901 42.0174C227.57 42.2435 227.405 42.587 227.405 43.0478C227.405 43.2565 227.446 43.437 227.528 43.5891C227.609 43.7413 227.716 43.8674 227.85 43.9674C227.983 44.0674 228.137 44.1413 228.313 44.1891C228.489 44.237 228.667 44.2609 228.848 44.2609C229.157 44.2609 229.457 44.2217 229.749 44.1435C230.041 44.0652 230.301 43.9457 230.528 43.7848C230.756 43.6239 230.938 43.4196 231.076 43.1717C231.213 42.9239 231.282 42.6304 231.282 42.2913V41.2348ZM229.981 40.8435C230.127 40.8261 230.301 40.8 230.503 40.7652C230.704 40.7304 230.87 40.6826 230.998 40.6217C231.127 40.5609 231.207 40.4587 231.237 40.3152C231.267 40.1717 231.282 40.0391 231.282 39.9174C231.282 39.5174 231.155 39.1891 230.902 38.9326C230.649 38.6761 230.221 38.5478 229.62 38.5478C229.354 38.5478 229.11 38.5717 228.886 38.6196C228.663 38.6674 228.468 38.75 228.3 38.8674C228.133 38.9848 227.995 39.1413 227.888 39.337C227.781 39.5326 227.71 39.7783 227.676 40.0739H226.89C226.916 39.6739 227.006 39.3326 227.161 39.05C227.315 38.7674 227.515 38.537 227.759 38.3587C228.004 38.1804 228.287 38.05 228.609 37.9674C228.931 37.8848 229.273 37.8435 229.633 37.8435C229.968 37.8435 230.284 37.8804 230.58 37.9543C230.876 38.0283 231.134 38.1457 231.353 38.3065C231.571 38.4674 231.743 38.6826 231.868 38.9522C231.992 39.2217 232.054 39.5522 232.054 39.9435V43.6217C232.054 43.9261 232.108 44.1196 232.215 44.2022C232.323 44.2848 232.54 44.2652 232.866 44.1435V44.7565C232.806 44.7739 232.718 44.8 232.602 44.8348C232.486 44.8696 232.372 44.887 232.261 44.887C232.14 44.887 232.024 44.8739 231.913 44.8478C231.784 44.8304 231.681 44.7891 231.604 44.7239C231.526 44.6587 231.464 44.5804 231.417 44.4891C231.37 44.3978 231.338 44.2978 231.32 44.1891C231.303 44.0804 231.295 43.9652 231.295 43.8435C230.968 44.2087 230.595 44.487 230.174 44.6783C229.753 44.8696 229.298 44.9652 228.809 44.9652C228.517 44.9652 228.236 44.9261 227.965 44.8478C227.695 44.7696 227.457 44.6478 227.251 44.4826C227.045 44.3174 226.881 44.1152 226.761 43.8761C226.641 43.637 226.581 43.3522 226.581 43.0217C226.581 41.8739 227.358 41.1957 228.912 40.987L229.981 40.8435ZM234.849 44.7826H234.076V38.0261H234.849V38.9652C235.158 38.6348 235.478 38.3652 235.809 38.1565C236.139 37.9478 236.536 37.8435 237 37.8435C237.412 37.8435 237.794 37.9152 238.146 38.0587C238.498 38.2022 238.794 38.4522 239.035 38.8087C239.198 39.0522 239.294 39.3022 239.325 39.5587C239.355 39.8152 239.37 40.0826 239.37 40.3609V44.7826H238.597V40.3739C238.597 39.7652 238.464 39.3087 238.198 39.0043C237.931 38.7 237.489 38.5478 236.871 38.5478C236.631 38.5478 236.412 38.5848 236.214 38.6587C236.017 38.7326 235.839 38.8304 235.68 38.9522C235.521 39.0739 235.386 39.213 235.274 39.3696C235.163 39.5261 235.077 39.6913 235.017 39.8652C234.939 40.0826 234.892 40.2913 234.875 40.4913C234.858 40.6913 234.849 40.9087 234.849 41.1435V44.7826ZM241.186 46.6217C241.289 46.6391 241.394 46.6565 241.501 46.6739C241.608 46.6913 241.718 46.7 241.829 46.7C242.044 46.7 242.22 46.6304 242.357 46.4913C242.495 46.3522 242.609 46.1848 242.699 45.9891C242.789 45.7935 242.864 45.5891 242.924 45.3761C242.984 45.163 243.053 44.9826 243.13 44.8348L240.542 38.0261H241.404L243.542 43.8304L245.68 38.0261H246.517L244.032 44.6913C243.877 45.1174 243.729 45.5 243.587 45.8391C243.446 46.1783 243.295 46.4674 243.137 46.7065C242.978 46.9457 242.802 47.1283 242.609 47.2543C242.415 47.3804 242.186 47.4435 241.92 47.4435C241.782 47.4435 241.651 47.4348 241.527 47.4174C241.402 47.4 241.289 47.3783 241.186 47.3522V46.6217Z" fill="#323F56"/>
<defs>
<linearGradient id="paint0_linear_4162_41664" x1="48.918" y1="49.4269" x2="48.918" y2="31.6601" gradientUnits="userSpaceOnUse">
<stop stop-color="#3E9679"/>
<stop offset="0.52267" stop-color="#4DA567"/>
<stop offset="1" stop-color="#58B25B"/>
</linearGradient>
<linearGradient id="paint1_linear_4162_41664" x1="18.2886" y1="18.6364" x2="18.2886" y2="0.869568" gradientUnits="userSpaceOnUse">
<stop stop-color="#3E9679"/>
<stop offset="0.52267" stop-color="#4DA567"/>
<stop offset="1" stop-color="#58B25B"/>
</linearGradient>
</defs>
</svg>
